<!--?xml version="1.0" standalone="no"?-->
              <svg id="sw-js-blob-svg" viewBox="0 0 100 100" xmlns="http://www.w3.org/2000/svg" version="1.1">
                    <defs> 
                        <linearGradient id="sw-gradient" x1="0" x2="1" y1="1" y2="0">
                            <stop id="stop1" stop-color="rgba(248, 117, 55, 1)" offset="0%"></stop>
                            <stop id="stop2" stop-color="rgba(251, 168, 31, 1)" offset="100%"></stop>
                        </linearGradient>
                    </defs>
                <path fill="url(#sw-gradient)" d="M19.9,-34.2C24.7,-31.7,26.8,-24.2,31.2,-17.6C35.6,-11.1,42.4,-5.6,40.6,-1C38.8,3.5,28.6,7,23.6,12.7C18.7,18.3,19.1,26.1,16.1,29.5C13,33,6.5,32.1,0,32.1C-6.6,32.2,-13.1,33.2,-18.5,31.1C-23.9,29,-28,23.8,-28.3,18.1C-28.5,12.4,-24.7,6.2,-24.8,0C-24.8,-6.2,-28.6,-12.5,-28.7,-18.6C-28.7,-24.8,-25.1,-30.9,-19.7,-33.1C-14.2,-35.2,-7.1,-33.5,0.2,-33.8C7.5,-34.2,15.1,-36.7,19.9,-34.2Z" width="100%" height="100%" transform="translate(50 50)" stroke-width="0" style="transition: all 0.3s ease 0s;"></path>
              </svg>